<svg width="100" height="100" viewBox="0 0 100 100" fill="none" xmlns="http://www.w3.org/2000/svg">
<path d="M78.5716 82.1429V75C78.5716 71.2112 77.0665 67.5776 74.3874 64.8985C71.7083 62.2194 68.0747 60.7143 64.2859 60.7143H35.7144C31.9256 60.7143 28.292 62.2194 25.6129 64.8985C22.9338 67.5776 21.4287 71.2112 21.4287 75V82.1429" stroke="#FDFDFF" stroke-width="2" stroke-linecap="round" stroke-linejoin="round"/>
<path d="M50.0001 46.4285C57.8899 46.4285 64.2858 40.0326 64.2858 32.1428C64.2858 24.253 57.8899 17.8571 50.0001 17.8571C42.1103 17.8571 35.7144 24.253 35.7144 32.1428C35.7144 40.0326 42.1103 46.4285 50.0001 46.4285Z" stroke="#FDFDFF" stroke-width="2" stroke-linecap="round" stroke-linejoin="round"/>
<path d="M50.0002 92.8572C73.6695 92.8572 92.8573 73.6694 92.8573 50C92.8573 26.3307 73.6695 7.14288 50.0002 7.14288C26.3309 7.14288 7.14307 26.3307 7.14307 50C7.14307 73.6694 26.3309 92.8572 50.0002 92.8572Z" stroke="#FDFDFF" stroke-width="2" stroke-linecap="round" stroke-linejoin="round"/>
</svg>
